<?xml version="1.0" encoding="UTF-8" standalone="no"?>
<!-- Generator: Adobe Illustrator 16.0.0, SVG Export Plug-In . SVG Version: 6.00 Build 0)  -->

<svg
   version="1.1"
   id="Capa_1"
   x="0px"
   y="0px"
   width="274.64801"
   height="395.70999"
   viewBox="0 0 274.64802 395.71"
   xml:space="preserve"
   sodipodi:docname="logo.svg"
   inkscape:version="1.1.2 (0a00cf5339, 2022-02-04)"
   xmlns:inkscape="http://www.inkscape.org/namespaces/inkscape"
   xmlns:sodipodi="http://sodipodi.sourceforge.net/DTD/sodipodi-0.dtd"
   xmlns="http://www.w3.org/2000/svg"
   xmlns:svg="http://www.w3.org/2000/svg"><defs
   id="defs39" /><sodipodi:namedview
   id="namedview37"
   pagecolor="#ffffff"
   bordercolor="#666666"
   borderopacity="1.0"
   inkscape:pageshadow="2"
   inkscape:pageopacity="0.0"
   inkscape:pagecheckerboard="0"
   showgrid="false"
   fit-margin-top="0"
   fit-margin-left="0"
   fit-margin-right="0"
   fit-margin-bottom="0"
   inkscape:zoom="2.1126583"
   inkscape:cx="79.283999"
   inkscape:cy="164.01138"
   inkscape:window-width="1920"
   inkscape:window-height="1011"
   inkscape:window-x="0"
   inkscape:window-y="32"
   inkscape:window-maximized="1"
   inkscape:current-layer="Capa_1" />
<g
   id="g4"
   style="fill:#a9a9b3;fill-opacity:1"
   transform="translate(-60.531)">
	<path
   d="M 197.849,0 C 122.131,0 60.531,61.609 60.531,137.329 c 0,72.887 124.591,243.177 129.896,250.388 l 4.951,6.738 c 0.579,0.792 1.501,1.255 2.471,1.255 0.985,0 1.901,-0.463 2.486,-1.255 l 4.948,-6.738 C 210.591,380.506 335.179,210.216 335.179,137.329 335.179,61.609 273.569,0 197.849,0 Z m 0,88.138 c 27.13,0 49.191,22.062 49.191,49.191 0,27.115 -22.062,49.191 -49.191,49.191 -27.114,0 -49.191,-22.076 -49.191,-49.191 0,-27.129 22.076,-49.191 49.191,-49.191 z"
   id="path2"
   style="fill:#a9a9b3;fill-opacity:1" />
</g>
<g
   id="g6"
   transform="translate(-60.531)">
</g>
<g
   id="g8"
   transform="translate(-60.531)">
</g>
<g
   id="g10"
   transform="translate(-60.531)">
</g>
<g
   id="g12"
   transform="translate(-60.531)">
</g>
<g
   id="g14"
   transform="translate(-60.531)">
</g>
<g
   id="g16"
   transform="translate(-60.531)">
</g>
<g
   id="g18"
   transform="translate(-60.531)">
</g>
<g
   id="g20"
   transform="translate(-60.531)">
</g>
<g
   id="g22"
   transform="translate(-60.531)">
</g>
<g
   id="g24"
   transform="translate(-60.531)">
</g>
<g
   id="g26"
   transform="translate(-60.531)">
</g>
<g
   id="g28"
   transform="translate(-60.531)">
</g>
<g
   id="g30"
   transform="translate(-60.531)">
</g>
<g
   id="g32"
   transform="translate(-60.531)">
</g>
<g
   id="g34"
   transform="translate(-60.531)">
</g>
</svg>
